<svg xmlns="http://www.w3.org/2000/svg" width="64" height="64" version="1.1" viewBox="0 0 16.933 16.933"><metadata/><defs><linearGradient id="a" x1="49.571" x2="51.714" y1="52.714" y2="54.857" gradientTransform="matrix(2.3333,0,0,2.3333,-68.667,-72.001)" gradientUnits="userSpaceOnUse"><stop offset="0"/><stop offset="1" stop-opacity="0"/></linearGradient></defs><g transform="scale(.26458)"><rect width="48" height="56" x="8" y="4" fill="#3fa7d7" ry="5" style="paint-order:stroke fill markers"/><path fill="url(#a)" fill-rule="evenodd" stroke-width="8.819" d="m56 46-14 14h9c2.77 0 5-2.23 5-5z" opacity=".15" style="paint-order:stroke fill markers"/></g><path fill="#ff6e65" stroke-linecap="round" stroke-linejoin="round" stroke-width=".612" d="m8.4365 4.4978a3.9687 3.9687 0 0 0-3.9387 3.9687 3.9687 3.9687 0 0 0 3.9687 3.9687 3.9687 3.9687 0 0 0 3.9687-3.9687 3.9687 3.9687 0 0 0-3.9687-3.9687 3.9687 3.9687 0 0 0-0.029972 0zm0.027388 1.5875a2.3812 2.3812 0 0 1 0.00258 0 2.3812 2.3812 0 0 1 2.3812 2.3812 2.3812 2.3812 0 0 1-2.3812 2.3812 2.3812 2.3812 0 0 1-2.3812-2.3812 2.3812 2.3812 0 0 1 2.3786-2.3812z" style="paint-order:stroke fill markers"/><path fill="#fff" d="m4.862 6.821a3.948 3.948 0 0 0-0.364 1.645c0 0.587 0.134 1.144 0.364 1.646l1.389-0.794a2.378 2.378 0 0 1-0.166-0.852c0-0.3 0.064-0.587 0.166-0.851m-1.39-0.794m7.211 0-1.39 0.794c0.102 0.264 0.166 0.55 0.166 0.851 0 0.301-0.064 0.587-0.165 0.852l1.389 0.794c0.229-0.502 0.363-1.059 0.363-1.646 0-0.587-0.134-1.144-0.363-1.645m-4.457 3.862-0.794 1.388c0.502 0.23 1.059 0.364 1.646 0.364 0.587 0 1.144-0.134 1.645-0.364l-0.794-1.389c-0.264 0.102-0.55 0.166-0.851 0.166-0.301 0-0.587-0.064-0.852-0.166m0.852-6.184c-0.587 0-1.144 0.134-1.646 0.363l0.794 1.39c0.265-0.102 0.55-0.166 0.852-0.166 0.3 0 0.587 0.064 0.851 0.165l0.794-1.389a3.948 3.948 0 0 0-1.645-0.363"/></svg>