<svg xmlns="http://www.w3.org/2000/svg" width="64" height="64" version="1.1" viewBox="0 0 16.933 16.933"><defs><linearGradient id="a" x1="49.571" x2="51.714" y1="52.714" y2="54.857" gradientTransform="matrix(2.3333,0,0,2.3333,-68.667,-72.001)" gradientUnits="userSpaceOnUse"><stop offset="0"/><stop offset="1" stop-opacity="0"/></linearGradient></defs><g transform="scale(.26458)"><rect width="48" height="56" x="8" y="4" fill="#fc8f36" ry="5" style="paint-order:stroke fill markers"/><path fill="url(#a)" fill-rule="evenodd" stroke-width="8.819" d="m56 46-14 14h9c2.77 0 5-2.23 5-5z" opacity=".15" style="paint-order:stroke fill markers"/></g><path fill="#fff" fill-rule="evenodd" d="m30.581 3.9566-3.1749-3.1749v1.852c0 0.73288 0.59001 1.3229 1.3229 1.3229z" opacity=".35" style="paint-order:stroke fill markers"/><path fill="#fff" d="m3.7381 13.706c0-0.163 0.056-0.3 0.169-0.41a0.56 0.56 0 0 1 0.411-0.168c0.159 0 0.293 0.056 0.403 0.168 0.112 0.11 0.168 0.247 0.168 0.41a0.554 0.554 0 0 1-0.168 0.406 0.548 0.548 0 0 1-0.403 0.165 0.565 0.565 0 0 1-0.411-0.165 0.548 0.548 0 0 1-0.169-0.406m-0.033-2.61v0.962c1.228 0 2.225 0.999 2.225 2.229h0.964c0-1.762-1.43-3.19-3.19-3.19zm1e-3 -2.102v1.063a4.229 4.229 0 0 1 4.224 4.23h1.066a5.294 5.294 0 0 0-5.29-5.293z" font-size="13.59" font-weight="700"/></svg>