<svg xmlns="http://www.w3.org/2000/svg" width="64" height="64" version="1.1"><defs><linearGradient id="a" x1="49.571" x2="51.714" y1="52.714" y2="54.857" gradientTransform="matrix(2.3333,0,0,2.3333,-68.667,-72.001)" gradientUnits="userSpaceOnUse"><stop offset="0"/><stop offset="1" stop-opacity="0"/></linearGradient></defs><g transform="scale(1)"><rect width="48" height="56" x="8" y="4" fill="#90d344" ry="5" style="paint-order:stroke fill markers"/><path fill="url(#a)" fill-rule="evenodd" stroke-width="8.819" d="m56 46-14 14h9c2.77 0 5-2.23 5-5z" opacity=".15" style="paint-order:stroke fill markers"/></g><path fill="#fff" fill-rule="evenodd" stroke-width="3.78" d="m138.06 8.421-12-12v6.9998c0 2.77 2.23 5 5 5z" opacity=".35" style="paint-order:stroke fill markers"/><path fill="#fff" fill-rule="evenodd" d="m46.997 24-30 22h6v-2h2v2h2v-2h2v2h2v-2h2v2h2v-2h2v2h2v-2h2v2h2v-2h2v2h2m-2-18.449v12.45h-16"/></svg>