<svg xmlns="http://www.w3.org/2000/svg" width="64" height="64" version="1.1" viewBox="0 0 16.933 16.933"><metadata/><defs><linearGradient id="a" x1="49.571" x2="51.714" y1="52.714" y2="54.857" gradientTransform="matrix(2.3333 0 0 2.3333 -68.667 -72.001)" gradientUnits="userSpaceOnUse"><stop offset="0"/><stop offset="1" stop-opacity="0"/></linearGradient></defs><g transform="scale(.26458)"><rect width="48" height="56" x="8" y="4" fill="#84c835" ry="5" style="paint-order:stroke fill markers"/><path fill="url(#a)" fill-rule="evenodd" stroke-width="8.819" d="m56 46-14 14h9c2.77 0 5-2.23 5-5z" opacity=".15" style="paint-order:stroke fill markers"/></g><ellipse cx="8.466" cy="10.848" stroke-linecap="round" stroke-linejoin="round" stroke-width="1.03" opacity=".1" rx="2.381" ry="1.058" style="paint-order:stroke fill markers"/><ellipse cx="8.466" cy="10.848" stroke-linecap="round" stroke-linejoin="round" stroke-width=".595" opacity=".1" rx="1.587" ry=".529" style="paint-order:stroke fill markers"/><path fill="#fff" fill-rule="evenodd" d="m8.4665 4.4978c-1.315 0-2.3812 1.0662-2.3812 2.3812 0 1.315 1.5875 3.9687 2.3812 3.9687 0.79373 0 2.3812-2.6537 2.3812-3.9687 0-1.315-1.0662-2.3812-2.3812-2.3812zm0 1.0582c0.73063 0 1.323 0.59232 1.323 1.323 0 0.73063-0.59232 1.323-1.323 1.323s-1.323-0.59232-1.323-1.323c0-0.73063 0.59232-1.323 1.323-1.323z"/></svg>