<svg xmlns="http://www.w3.org/2000/svg" width="64" height="64" version="1.1" viewBox="0 0 64 64"><defs><linearGradient id="a" x1="49.571" x2="51.714" y1="52.714" y2="54.857" gradientTransform="matrix(2.3333,0,0,2.3333,-68.667,-72.001)" gradientUnits="userSpaceOnUse"><stop offset="0"/><stop offset="1" stop-opacity="0"/></linearGradient></defs><g transform="scale(1)"><rect width="48" height="56" x="8" y="4" fill="#4d4d4d" ry="5" style="paint-order:stroke fill markers"/><path fill="url(#a)" fill-rule="evenodd" stroke-width="8.819" d="m56 46-14 14h9c2.77 0 5-2.23 5-5z" opacity=".15" style="paint-order:stroke fill markers"/></g><g fill="none"><path stroke="#1d99f3" d="m21 31.513c7.043 0 8.3464 8.9615 11.453 8.9893 3.1068 0.02484 4.5065-9.0108 11.547-9.0108"/><path stroke="#da4453" d="m21 30.545c7.043 0 8.4753-6.1008 11.485-6.0943 2.9904 0.0064 4.4749 7.0415 11.515 7.0415"/><path stroke="#d6d6d6" d="m21 30.545c7.043 0 7.4697-10.014 11.47-10.014s4.4901 10.961 11.53 10.961"/></g><g fill="#d6d6d6"><rect width="1" height="23" x="20" y="20" stroke-width="1.109" color="#000" color-rendering="auto" image-rendering="auto" shape-rendering="auto"/><g><rect width="24" height="1" x="20" y="31"/><rect width="1" height="3" x="26" y="30"/><rect width="1" height="3" x="32" y="30"/><rect width="1" height="3" x="38" y="30"/></g></g></svg>