<svg xmlns="http://www.w3.org/2000/svg" width="64" height="64" version="1.1" viewBox="0 0 16.933 16.933"><defs><linearGradient id="a" x1="49.571" x2="51.714" y1="52.714" y2="54.857" gradientTransform="matrix(2.3333,0,0,2.3333,-68.667,-72.001)" gradientUnits="userSpaceOnUse"><stop offset="0"/><stop offset="1" stop-opacity="0"/></linearGradient></defs><g transform="matrix(0 .26458 .26458 0 -6e-5 -6e-5)"><rect width="48" height="56" x="8" y="4" fill="#7f7fff" ry="5" style="paint-order:stroke fill markers"/><path fill="url(#a)" fill-rule="evenodd" stroke-width="8.819" d="m56 46-14 14h9c2.77 0 5-2.23 5-5z" opacity=".15" style="paint-order:stroke fill markers"/></g><g fill="#fff"><path stroke-width="2.835" d="m37.25 31-4 6.1543 5.75 8.8457h8l-9.75-15z" color="#000" opacity=".25" transform="scale(.26458)"/><path d="m6.879 6.879-3.4395 5.2916h6.879z" color="#000" opacity=".65"/><path d="m11.377 4.7624c-0.73061 0-1.3229 0.5923-1.3229 1.3229 0 0.73064 0.59228 1.3229 1.3229 1.3229 0.73061 0 1.3229-0.5923 1.3229-1.3229 0-0.73064-0.59228-1.3229-1.3229-1.3229z" color="#000" opacity=".65"/></g></svg>