<svg xmlns="http://www.w3.org/2000/svg" width="64" height="64" version="1.1" viewBox="0 0 16.933 16.933"><path fill="#f9f9f9" fill-rule="evenodd" stroke-width=".265" d="m3.4395 1.0583c-0.73289 0-1.3229 0.59001-1.3229 1.3229v12.171c0 0.73289 0.59001 1.3229 1.3229 1.3229h10.054c0.73289 0 1.3229-0.59001 1.3229-1.3229v-10.319l-3.175-3.175z" style="paint-order:stroke fill markers"/><path fill="#036fad" d="m3.4395 1.0583c-0.73289 0-1.3229 0.59-1.3229 1.3229v12.171c0 0.73289 0.59 1.3229 1.3229 1.3229h10.054c0.73289 0 1.3229-0.59 1.3229-1.3229v-10.319l-3.1749-3.1749zm0 0.52916h7.9828l2.8649 2.8649v10.099c0 0.44889-0.34485 0.79373-0.79373 0.79373h-10.054c-0.44889 0-0.79373-0.34485-0.79373-0.79373v-12.171c0-0.44889 0.34485-0.79373 0.79373-0.79373z" color="#000" color-rendering="auto" dominant-baseline="auto" image-rendering="auto" shape-rendering="auto" solid-color="#000000" style="font-feature-settings:normal;font-variant-alternates:normal;font-variant-caps:normal;font-variant-ligatures:normal;font-variant-numeric:normal;font-variant-position:normal;isolation:auto;mix-blend-mode:normal;paint-order:fill markers stroke;shape-padding:0;text-decoration-color:#000;text-decoration-line:none;text-decoration-style:solid;text-indent:0;text-orientation:mixed;text-transform:none;white-space:normal"/><path fill="#036fad" fill-rule="evenodd" d="m12.171 1.0583 2.6458 2.6458-3.75e-4 -1.3229c-2.08e-4 -0.73288-0.59001-1.3229-1.3229-1.3229z" style="paint-order:stroke fill markers"/><rect width="5.032" height="3.355" x="7.242" y="5.292" fill="#1d8cbf" color="#000"/><g fill="#249bd0" stroke-width=".06"><rect width="1.857" height=".3" x="5.145" y="5.296" color="#000"/><rect width="7.668" height=".3" x="4.606" y="8.89" color="#000"/><rect width="5.032" height=".3" x="4.606" y="11.286" color="#000"/><rect width="2.396" height=".3" x="4.606" y="5.895" color="#000"/><rect width="2.396" height=".3" x="4.606" y="6.494" color="#000"/><rect width="2.396" height=".3" x="4.606" y="7.093" color="#000"/><rect width="2.396" height=".3" x="4.606" y="7.692" color="#000"/><rect width="2.396" height=".3" x="4.606" y="8.291" color="#000"/><rect width="7.668" height=".3" x="4.606" y="9.489" color="#000"/><rect width="7.668" height=".3" x="4.606" y="10.088" color="#000"/><rect width="7.668" height=".3" x="4.606" y="10.687" color="#000"/></g><rect width="4.553" height="2.875" x="7.482" y="5.531" fill="#8bcef3" color="#000"/><g><path fill="#18a203" d="m18.938 17.21h-0.19563l-0.86666 0.15176s-0.85641-0.22763-0.98525-0.22763c-0.12658 0-0.5323 0.07587-0.60822 0.07587-0.05321 0-0.37934-0.15175-0.45647-0.15175-0.12725 0-0.27388 0.16123-0.65327 0.22762 0 0-0.109-0.24185-0.18014-0.22762-0.45526 0.17547-0.60711 0.15175-0.60711 0.15175v0.75877h4.5526l1.2e-4 -0.75877h1.7e-5z" color="#000" transform="translate(-6.9038,-9.5621)"/></g><g><path fill="#ffd441" d="m18.938 15.987a0.89857 0.89857 0 0 1-0.89857-0.89857h0.89857z" color="#000" transform="translate(-6.9032 -9.5575)"/></g></svg>