<svg xmlns="http://www.w3.org/2000/svg" width="64" height="64" version="1.1" viewBox="0 0 16.933 16.933"><path fill="#f9f9f9" fill-rule="evenodd" stroke-width=".265" d="m3.4395 1.0583c-0.73289 0-1.3229 0.59001-1.3229 1.3229v12.171c0 0.73289 0.59001 1.3229 1.3229 1.3229h10.054c0.73289 0 1.3229-0.59001 1.3229-1.3229v-10.319l-3.175-3.175z" style="paint-order:stroke fill markers"/><path fill="#5b5b5b" d="m3.4395 1.0583c-0.73289 0-1.3229 0.59-1.3229 1.3229v12.171c0 0.73289 0.59 1.3229 1.3229 1.3229h10.054c0.73289 0 1.3229-0.59 1.3229-1.3229v-10.319l-3.1749-3.1749zm0 0.52916h7.9828l2.8649 2.8649v10.099c0 0.44889-0.34485 0.79373-0.79373 0.79373h-10.054c-0.44889 0-0.79373-0.34485-0.79373-0.79373v-12.171c0-0.44889 0.34485-0.79373 0.79373-0.79373z" color="#000" color-rendering="auto" dominant-baseline="auto" image-rendering="auto" shape-rendering="auto" solid-color="#000000" style="font-feature-settings:normal;font-variant-alternates:normal;font-variant-caps:normal;font-variant-ligatures:normal;font-variant-numeric:normal;font-variant-position:normal;isolation:auto;mix-blend-mode:normal;paint-order:fill markers stroke;shape-padding:0;text-decoration-color:#000;text-decoration-line:none;text-decoration-style:solid;text-indent:0;text-orientation:mixed;text-transform:none;white-space:normal"/><path fill="#5b5b5b" fill-rule="evenodd" d="m12.171 1.0583 2.6458 2.6458-3.75e-4 -1.3229c-2.08e-4 -0.73288-0.59001-1.3229-1.3229-1.3229z" style="paint-order:stroke fill markers"/><rect width="2.117" height="1.455" x="10.59" y="5.027" fill="#fff" stroke-width=".132" opacity=".6"/><rect width="2.117" height="1.455" x="10.59" y="4.895" fill="#1c99e0" stroke-width=".132"/><path fill="#fff" stroke-width=".111" d="m12.568 5.6815a0.66147 0.66145 0 0 1-0.66147-0.66145h0.66147z" opacity=".5"/><rect width="1.72" height="1.058" x="10.789" y="5.093" fill="none" stroke="#fff" stroke-width=".132" opacity=".35"/><g fill="#1c99e0" stroke-width=".132" transform="translate(0 -.13672)"><rect width="1.587" height=".265" x="8.738" y="5.164"/><rect width="1.587" height=".265" x="8.738" y="5.693"/><rect width="1.587" height=".265" x="8.738" y="6.222"/><rect width="3.969" height=".265" x="8.738" y="6.751"/><rect width="3.969" height=".265" x="8.738" y="7.28"/><rect width="3.175" height=".265" x="8.738" y="7.809"/><rect width="2.117" height="1.455" x="6.09" y="5.031"/></g><path fill="#fff" stroke-width=".111" d="m8.0682 5.6815a0.66147 0.66145 0 0 1-0.66147-0.66145h0.66147z" opacity=".5"/><rect width="1.72" height="1.058" x="6.289" y="5.093" fill="none" stroke="#fff" stroke-width=".132" opacity=".35"/><g fill="#1c99e0" stroke-width=".132" transform="translate(0 -.13672)"><rect width="1.587" height=".265" x="4.238" y="5.164"/><rect width="1.587" height=".265" x="4.238" y="5.693"/><rect width="1.587" height=".265" x="4.238" y="6.222"/><rect width="3.969" height=".265" x="4.238" y="6.751"/><rect width="3.969" height=".265" x="4.238" y="7.28"/><rect width="3.175" height=".265" x="4.238" y="7.809"/></g><rect width="2.117" height="1.455" x="10.59" y="8.996" fill="#fff" stroke-width=".132" opacity=".6"/><rect width="2.117" height="1.455" x="10.59" y="8.863" fill="#1c99e0" stroke-width=".132"/><path fill="#fff" stroke-width=".111" d="m12.568 9.6501a0.66147 0.66145 0 0 1-0.66147-0.66145h0.66147z" opacity=".5"/><rect width="1.72" height="1.058" x="10.789" y="9.062" fill="none" stroke="#fff" stroke-width=".132" opacity=".35"/><g fill="#1c99e0" stroke-width=".132"><rect width="1.587" height=".265" x="8.738" y="8.996"/><rect width="1.587" height=".265" x="8.738" y="9.525"/><rect width="1.587" height=".265" x="8.738" y="10.054"/><rect width="3.969" height=".265" x="8.738" y="10.583"/><rect width="3.969" height=".265" x="8.738" y="11.112"/><rect width="3.175" height=".265" x="8.738" y="11.641"/><rect width="2.117" height="1.455" x="6.09" y="8.863"/></g><path fill="#fff" stroke-width=".111" d="m8.0682 9.6501a0.66147 0.66145 0 0 1-0.66147-0.66145h0.66147z" opacity=".5"/><rect width="1.72" height="1.058" x="6.289" y="9.062" fill="none" stroke="#fff" stroke-width=".132" opacity=".35"/><g fill="#1c99e0" stroke-width=".132"><rect width="1.587" height=".265" x="4.238" y="8.996"/><rect width="1.587" height=".265" x="4.238" y="9.525"/><rect width="1.587" height=".265" x="4.238" y="10.054"/><rect width="3.969" height=".265" x="4.238" y="10.583"/><rect width="3.969" height=".265" x="4.238" y="11.112"/><rect width="3.175" height=".265" x="4.238" y="11.641"/></g></svg>