<svg xmlns="http://www.w3.org/2000/svg" xmlns:xlink="http://www.w3.org/1999/xlink" width="64" height="64" version="1.1" viewBox="0 0 16.933 16.933"><path fill="#f9f9f9" fill-rule="evenodd" stroke-width=".265" d="m3.4395 1.0583c-0.73289 0-1.3229 0.59001-1.3229 1.3229v12.171c0 0.73289 0.59001 1.3229 1.3229 1.3229h10.054c0.73289 0 1.3229-0.59001 1.3229-1.3229v-10.319l-3.175-3.175z" style="paint-order:stroke fill markers"/><path fill="#d17520" d="m3.4395 1.0583c-0.73289 0-1.3229 0.59-1.3229 1.3229v12.171c0 0.73289 0.59 1.3229 1.3229 1.3229h10.054c0.73289 0 1.3229-0.59 1.3229-1.3229v-10.319l-3.1749-3.1749zm0 0.52916h7.9828l2.8649 2.8649v10.099c0 0.44889-0.34485 0.79373-0.79373 0.79373h-10.054c-0.44889 0-0.79373-0.34485-0.79373-0.79373v-12.171c0-0.44889 0.34485-0.79373 0.79373-0.79373z" color="#000" color-rendering="auto" dominant-baseline="auto" image-rendering="auto" shape-rendering="auto" solid-color="#000000" style="font-feature-settings:normal;font-variant-alternates:normal;font-variant-caps:normal;font-variant-ligatures:normal;font-variant-numeric:normal;font-variant-position:normal;isolation:auto;mix-blend-mode:normal;paint-order:fill markers stroke;shape-padding:0;text-decoration-color:#000;text-decoration-line:none;text-decoration-style:solid;text-indent:0;text-orientation:mixed;text-transform:none;white-space:normal"/><path fill="#d17520" fill-rule="evenodd" d="m12.171 1.0583 2.6458 2.6458-3.75e-4 -1.3229c-2.08e-4 -0.73288-0.59001-1.3229-1.3229-1.3229z" style="paint-order:stroke fill markers"/><g><path fill="#f7bfaf" d="m9.282 7.4671a2.2342 2.2342 0 1 1-4.4684 0 2.2342 2.2342 0 1 1 4.4684 0z" color="#000" enable-background="new"/><rect width="3.528" height="3.528" x="8.474" y="6.762" fill="#d39d1d" color="#000" enable-background="new"/><path fill="#f9d254" d="m9.87 11.23h-4.4684l2.2342-3.5864 1.1171 1.7932z" color="#000" enable-background="new"/></g><rect id="c" width=".647" height=".647" x="4.961" y="10.966" fill="#9ef290" stroke-width="0" color="#000" enable-background="new" opacity=".75"/><path fill="none" d="m9.415 10.407h2.7046v-3.7629h-3.7629v2.0696z" color="#000" enable-background="new"/><use width="5033" height="1085" enable-background="new" transform="translate(2.3518,-3.7629)" xlink:href="#c"/><use width="5033" height="1085" enable-background="new" transform="translate(4.7036,2.01e-6)" xlink:href="#c"/></svg>