<svg xmlns="http://www.w3.org/2000/svg" xmlns:xlink="http://www.w3.org/1999/xlink" width="64" height="64" version="1.1" viewBox="0 0 16.933 16.933"><path fill="#f9f9f9" fill-rule="evenodd" stroke-width=".265" d="m3.4395 1.0583c-0.73289 0-1.3229 0.59001-1.3229 1.3229v12.171c0 0.73289 0.59001 1.3229 1.3229 1.3229h10.054c0.73289 0 1.3229-0.59001 1.3229-1.3229v-10.319l-3.175-3.175z" style="paint-order:stroke fill markers"/><path fill="#ad450d" d="m3.4395 1.0583c-0.73289 0-1.3229 0.59-1.3229 1.3229v12.171c0 0.73289 0.59 1.3229 1.3229 1.3229h10.054c0.73289 0 1.3229-0.59 1.3229-1.3229v-10.319l-3.1749-3.1749zm0 0.52916h7.9828l2.8649 2.8649v10.099c0 0.44889-0.34485 0.79373-0.79373 0.79373h-10.054c-0.44889 0-0.79373-0.34485-0.79373-0.79373v-12.171c0-0.44889 0.34485-0.79373 0.79373-0.79373z" color="#000" color-rendering="auto" dominant-baseline="auto" image-rendering="auto" shape-rendering="auto" solid-color="#000000" style="font-feature-settings:normal;font-variant-alternates:normal;font-variant-caps:normal;font-variant-ligatures:normal;font-variant-numeric:normal;font-variant-position:normal;isolation:auto;mix-blend-mode:normal;paint-order:fill markers stroke;shape-padding:0;text-decoration-color:#000;text-decoration-line:none;text-decoration-style:solid;text-indent:0;text-orientation:mixed;text-transform:none;white-space:normal"/><path fill="#ad450d" fill-rule="evenodd" d="m12.171 1.0583 2.6458 2.6458-3.75e-4 -1.3229c-2.08e-4 -0.73288-0.59001-1.3229-1.3229-1.3229z" style="paint-order:stroke fill markers"/><path id="p" fill="gray" stroke-width=".058" d="m8.249 10.639-1.403 0.92602h0.56538l0.19667-0.06447 1.09-0.86154z"/><use width="5033" height="1085" transform="matrix(-1 0 0 1 16.875 2.3464e-6)" xlink:href="#p"/><g stroke-width=".058"><path fill="gray" d="m8.6981 10.639 1.389 0.92602h-0.5794l-0.17862-0.050815-1.094-0.8752z"/><rect width=".695" height=".347" x="8.119" y="10.408" fill="gray" color="#000"/><rect width="7.408" height="5.325" x="4.763" y="5.199" fill="#ffe6d5" color="#000" rx=".116" ry=".116"/><rect width="1.736" height=".232" x="6.152" y="7.688" fill="#a40" color="#000"/></g><path fill="#ff7f2a" stroke-width=".022" d="m5.8043 7.8024a0.11575 0.11575 0 1 1-0.23151 0 0.11575 0.11575 0 1 1 0.23151 0z" color="#000"/><g stroke-width=".058"><rect width="6.019" height=".289" x="5.457" y="5.893" fill="#a40" color="#000"/><rect width="3.01" height="2.083" x="8.467" y="7.63" fill="gray" color="#000"/><rect width="2.662" height="1.736" x="8.64" y="7.803" fill="#f2f2f2" color="#000"/><rect width="3.704" height=".289" x="6.615" y="6.472" fill="#a40" color="#000"/><rect width="1.736" height=".232" x="6.152" y="8.266" fill="#a40" color="#000"/></g><path fill="#ff7f2a" stroke-width=".022" d="m5.8043 8.3812a0.11575 0.11575 0 1 1-0.23151 0 0.11575 0.11575 0 1 1 0.23151 0z" color="#000"/><rect width="1.736" height=".232" x="6.152" y="8.845" fill="#a40" stroke-width=".058" color="#000"/><path fill="#ff7f2a" stroke-width=".022" d="m5.8043 8.9599a0.11575 0.11575 0 1 1-0.23151 0 0.11575 0.11575 0 1 1 0.23151 0z" color="#000"/><rect width="1.736" height=".232" x="6.152" y="9.424" fill="#a40" stroke-width=".058" color="#000"/><path fill="#ff7f2a" stroke-width=".022" d="m5.8043 9.5387a0.11575 0.11575 0 1 1-0.23151 0 0.11575 0.11575 0 1 1 0.23151 0z" color="#000"/></svg>