<svg xmlns="http://www.w3.org/2000/svg" width="64" height="64" version="1.1" viewBox="0 0 16.933 16.933"><metadata/><defs><linearGradient id="a" x1="49.571" x2="51.714" y1="52.714" y2="54.857" gradientTransform="matrix(2.3333,0,0,2.3333,-68.667,-72.001)" gradientUnits="userSpaceOnUse"><stop offset="0"/><stop offset="1" stop-opacity="0"/></linearGradient></defs><g transform="scale(.26458)"><rect width="48" height="56" x="8" y="4" fill="#f44336" ry="5" style="paint-order:stroke fill markers"/><path fill="url(#a)" fill-rule="evenodd" stroke-width="8.819" d="m56 46-14 14h9c2.77 0 5-2.23 5-5z" opacity=".15" style="paint-order:stroke fill markers"/></g><path fill="#fff" fill-rule="evenodd" d="m10.231 5.4344 0.0635 0.08468-0.30902 1.1906-0.1175 0.0197-0.74929-1.1906 0.054-0.10438zm-2.4701 0 0.05206 0.10697-0.88158 1.2567-0.11743-0.03055-0.17673-1.2567 0.06537-0.07641zm3.1379 0.02377 1.3229 1.7198-0.05083 0.10852h-1.852l-0.06272-0.08707 0.52916-1.7198zm-2.3812 0 1.3229 1.7198-0.05084 0.10852h-2.6458l-0.05084-0.10852 1.3229-1.7198zm-2.4829 0 0.11356 0.02144 0.52916 1.7198-0.06272 0.08707h-1.852l-0.05084-0.10852zm6.1361 2.0929 0.04845 0.11116-3.4395 3.8364-0.10923-0.07105 1.5875-3.8364 0.06078-0.04011zm-2.3812 0 0.06104 0.09159-1.3229 3.3072h-0.12208l-1.3229-3.3072 0.06104-0.09159zm-3.1749 0 0.06078 0.04011 1.5875 3.8364-0.10923 0.07105-3.4395-3.8364 0.04845-0.11117z" color="#000" color-rendering="auto" image-rendering="auto" shape-rendering="auto" solid-color="#000000" style="isolation:auto;mix-blend-mode:normal;text-decoration-color:#000;text-decoration-line:none;text-decoration-style:solid;text-indent:0;text-transform:none;white-space:normal"/></svg>