<svg xmlns="http://www.w3.org/2000/svg" width="64" height="64" version="1.1" viewBox="0 0 64 64"><metadata/><defs><linearGradient id="a" x1="49.571" x2="51.714" y1="52.714" y2="54.857" gradientTransform="matrix(2.3333,0,0,2.3333,-68.667,-72.001)" gradientUnits="userSpaceOnUse"><stop offset="0"/><stop offset="1" stop-opacity="0"/></linearGradient></defs><g transform="scale(1)"><rect width="48" height="56" x="8" y="4" fill="#e6446d" ry="5" style="paint-order:stroke fill markers"/><path fill="url(#a)" fill-rule="evenodd" stroke-width="8.819" d="m56 46-14 14h9c2.77 0 5-2.23 5-5z" opacity=".15" style="paint-order:stroke fill markers"/></g><g fill="#e6446d" stroke-width=".823" aria-label="P"><path fill="#fff" stroke-width=".823" d="m32.247 22.668v9.0182h4.0831q2.2666 0 3.5044-1.1735t1.2378-3.3436q0-2.1541-1.2378-3.3276t-3.5044-1.1735zm-3.2472-2.6685h7.3303q4.0349 0 6.0925 1.8326 2.0737 1.8165 2.0737 5.337 0 3.5526-2.0737 5.3691-2.0576 1.8165-6.0925 1.8165h-4.0831v9.6451h-3.2472z"/></g><circle cx="23.5" cy="30.5" r="1.5" fill="#fff" style="paint-order:normal"/></svg>