<svg xmlns="http://www.w3.org/2000/svg" width="64" height="64" version="1.1" viewBox="0 0 16.933 16.933"><metadata/><defs><linearGradient id="a" x1="49.571" x2="51.714" y1="52.714" y2="54.857" gradientTransform="matrix(2.3333,0,0,2.3333,-68.667,-72.001)" gradientUnits="userSpaceOnUse"><stop offset="0"/><stop offset="1" stop-opacity="0"/></linearGradient></defs><g transform="scale(.26458)"><rect width="48" height="56" x="8" y="4" fill="#888" ry="5" style="paint-order:stroke fill markers"/><path fill="url(#a)" fill-rule="evenodd" stroke-width="8.819" d="m56 46-14 14h9c2.77 0 5-2.23 5-5z" opacity=".15" style="paint-order:stroke fill markers"/></g><g fill="#fff" shape-rendering="auto"><path d="m152 96c-33.104 0-60 26.898-60 60s26.896 60 60 60 60-26.898 60-60-26.896-60-60-60zm2e-3 6a54 54 0 0 1 54 54 54 54 0 0 1-54 54 54 54 0 0 1-54-54 54 54 0 0 1 54-54z" color="#000" color-rendering="auto" enable-background="accumulate" image-rendering="auto" solid-color="#000000" transform="matrix(.066145 0 0 .066145 -1.5873 -1.852)" style="isolation:auto;mix-blend-mode:normal;shape-padding:0;text-decoration-color:#000;text-decoration-line:none;text-decoration-style:solid;text-indent:0;text-transform:none;white-space:normal"/><path d="m148 148v40l8 1e-5v-40z" color="#000" color-rendering="auto" enable-background="accumulate" image-rendering="auto" solid-color="#000000" transform="matrix(.066145 0 0 .066145 -1.5873 -1.852)" style="isolation:auto;mix-blend-mode:normal;shape-padding:0;text-decoration-color:#000;text-decoration-line:none;text-decoration-style:solid;text-indent:0;text-transform:none;white-space:normal"/><path d="m152 126c-3.3137 1e-5 -6 2.6863-6 6 1e-5 3.3137 2.6863 6 6 6 3.3137-1e-5 6-2.6863 6-6-1e-5 -3.3137-2.6863-6-6-6z" color="#000" color-rendering="auto" enable-background="accumulate" image-rendering="auto" solid-color="#000000" transform="matrix(.066145 0 0 .066145 -1.5873 -1.852)" style="isolation:auto;mix-blend-mode:normal;shape-padding:0;text-decoration-color:#000;text-decoration-line:none;text-decoration-style:solid;text-indent:0;text-transform:none;white-space:normal"/></g></svg>