<svg xmlns="http://www.w3.org/2000/svg" version="1.1" viewBox="0 0 64 64"><metadata/><defs><linearGradient id="a" x1="49.571" x2="51.714" y1="52.714" y2="54.857" gradientTransform="matrix(2.3333,0,0,2.3333,-68.667,-72.001)" gradientUnits="userSpaceOnUse"><stop offset="0"/><stop offset="1" stop-opacity="0"/></linearGradient></defs><g transform="scale(1)"><rect width="48" height="56" x="8" y="4" fill="#d93f49" ry="5" style="paint-order:stroke fill markers"/><path fill="url(#a)" fill-rule="evenodd" stroke-width="8.819" d="m56 46-14 14h9c2.77 0 5-2.23 5-5z" opacity=".15" style="paint-order:stroke fill markers"/></g><path fill="#fff" d="m23 21c-1.108 0-2 0.892-2 2v18c0 1.108 0.892 2 2 2h18c1.108 0 2-0.892 2-2v-18c0-1.108-0.892-2-2-2h-18zm1 4h1v1h2v-1h1v1h-1v2h1v1h-1v-1h-2v1h-1v-1h1v-2h-1v-1zm12 0h1v1h2v-1h1v1h-1v2h1v1h-1v-1h-2v1h-1v-1h1v-2h-1v-1zm-7 8h6v2h2v2h2v2h-2v-2h-2v-2h-6v2h-2v2h-2v-2h2v-2h2v-2z" color="#000" color-rendering="auto" image-rendering="auto" shape-rendering="auto" solid-color="#000000" style="isolation:auto;mix-blend-mode:normal"/></svg>