<svg xmlns="http://www.w3.org/2000/svg" width="64" height="64" version="1.1" viewBox="0 0 64 64"><metadata/><defs><linearGradient id="a" x1="49.571" x2="51.714" y1="52.714" y2="54.857" gradientTransform="matrix(2.3333,0,0,2.3333,-68.667,-72.001)" gradientUnits="userSpaceOnUse"><stop offset="0"/><stop offset="1" stop-opacity="0"/></linearGradient></defs><g transform="scale(1)"><rect width="48" height="56" x="8" y="4" fill="#f9b72b" ry="5" style="paint-order:stroke fill markers"/><path fill="url(#a)" fill-rule="evenodd" stroke-width="8.819" d="m56 46-14 14h9c2.77 0 5-2.23 5-5z" opacity=".15" style="paint-order:stroke fill markers"/></g><path fill="#fff" stroke-width="1.692" d="m29.154 21c-2.804 0-5.0768 2.2731-5.0768 5.0768s2.2729 5.0768 5.0768 5.0768c2.804 0 5.0768-2.2731 5.0768-5.0768s-2.2729-5.0768-5.0768-5.0768zm8.455 3.2921 0.0067 0.0066c-0.65708 0-1.2748 0.15112-1.8344 0.40325 0.09239 0.44346 0.14212 0.90215 0.14212 1.3717 0 1.8651-0.76866 3.5609-2.003 4.7895 0.77845 1.1846 2.1318 1.9799 3.6887 1.9799 2.4246 0 4.3893-1.9128 4.3893-4.2736s-1.9649-4.277-4.3893-4.277zm-8.455 10.24c-10.154 0.0057-10.154 6.7757-10.154 6.7757v1.6923h20.308v-1.6923s0-6.7863-10.154-6.7693zm8.4614 0.0033v0.0033c-0.33186 0-0.62904 0.02132-0.93538 0.03632 1.1805 0.67636 2.08 1.4843 2.7136 2.3302 1.5908 2.1323 1.6064 4.3995 1.6064 4.3995h5.0768v-1.6923s0-5.0768-8.4614-5.0768z" class="ColorScheme-Text"/></svg>