<svg xmlns="http://www.w3.org/2000/svg" width="64" height="64" version="1.1" viewBox="0 0 16.933 16.933"><defs><linearGradient id="a" x1="49.571" x2="51.714" y1="52.714" y2="54.857" gradientTransform="matrix(2.3333,0,0,2.3333,-68.667,-72.001)" gradientUnits="userSpaceOnUse"><stop offset="0"/><stop offset="1" stop-opacity="0"/></linearGradient></defs><g transform="scale(.26458)"><rect width="48" height="56" x="8" y="4" fill="#f4f4f4" ry="5" style="paint-order:stroke fill markers"/><path fill="url(#a)" fill-rule="evenodd" stroke-width="8.819" d="m56 46-14 14h9c2.77 0 5-2.23 5-5z" opacity=".1" style="paint-order:stroke fill markers"/></g><g fill="none" stroke="#999" stroke-width=".529" transform="translate(-19.843 2.3149)"><ellipse cx="28.31" cy="3.77" stroke-dashoffset="1" stroke-linejoin="round" enable-background="new" rx="3.439" ry="1.323"/><path d="m24.87 3.7041v4.8286" enable-background="new"/><g stroke-dashoffset="1" stroke-linejoin="round"><path d="m31.749 5.3573a3.4395 1.3229 0 0 1-1.7198 1.1457 3.4395 1.3229 0 0 1-3.4395 0 3.4395 1.3229 0 0 1-1.7198-1.1457" enable-background="new"/><path d="m31.749 6.9448a3.4395 1.3229 0 0 1-1.7198 1.1457 3.4395 1.3229 0 0 1-3.4395 0 3.4395 1.3229 0 0 1-1.7198-1.1457" enable-background="new"/><path d="m31.749 8.5323a3.4395 1.3229 0 0 1-1.7198 1.1457 3.4395 1.3229 0 0 1-3.4395 0 3.4395 1.3229 0 0 1-1.7198-1.1457" enable-background="new"/></g><path d="m31.749 3.7041v4.8286" enable-background="new"/></g></svg>