<svg xmlns="http://www.w3.org/2000/svg" width="64" height="64" version="1.1" viewBox="0 0 16.933 16.933"><metadata/><defs><linearGradient id="a" x1="49.571" x2="51.714" y1="52.714" y2="54.857" gradientTransform="matrix(2.3333,0,0,2.3333,-68.667,-72.001)" gradientUnits="userSpaceOnUse"><stop offset="0"/><stop offset="1" stop-opacity="0"/></linearGradient></defs><g transform="scale(.26458)"><rect width="48" height="56" x="8" y="4" fill="#5884f4" ry="5" style="paint-order:stroke fill markers"/><path fill="url(#a)" fill-rule="evenodd" stroke-width="8.819" d="m56 46-14 14h9c2.77 0 5-2.23 5-5z" opacity=".15" style="paint-order:stroke fill markers"/></g><g fill="#fff"><path d="m21.4 10.099 2.1358 0.87841-0.15643 0.46327-2.5991-1.101v-0.48132l2.5991-1.101 0.15643 0.46327z" enable-background="new" transform="translate(-16.547 -1.6323)"/><path d="m24.284 13.011h-0.57156l2.0396-5.824h0.55953z" enable-background="new" transform="translate(-16.547 -1.6323)"/><path d="m26.491 9.2204 0.15643-0.46327 2.5991 1.101v0.48132l-2.5991 1.101-0.15643-0.46327 2.1358-0.87841z" enable-background="new" transform="translate(-16.547 -1.6323)"/></g></svg>