<svg xmlns="http://www.w3.org/2000/svg" width="64" height="64" version="1.1" viewBox="0 0 16.933 16.933"><metadata/><defs><linearGradient id="a" x1="49.571" x2="51.714" y1="52.714" y2="54.857" gradientTransform="matrix(2.3333,0,0,2.3333,-68.667,-72.001)" gradientUnits="userSpaceOnUse"><stop offset="0"/><stop offset="1" stop-opacity="0"/></linearGradient></defs><g transform="scale(.26458)"><rect width="48" height="56" x="8" y="4" fill="#7839b7" ry="5" style="paint-order:stroke fill markers"/><path fill="url(#a)" fill-rule="evenodd" stroke-width="8.819" d="m56 46-14 14h9c2.77 0 5-2.23 5-5z" opacity=".15" style="paint-order:stroke fill markers"/></g><g fill="#fff"><path d="m83.997 204 32-48-32-48h24l32 48-32 48z" transform="matrix(.060632 0 0 .060632 -.6724 -.99217)"/><path d="m116 204 32-48-32-48h24l64 96h-24l-20-30-20 30z" opacity=".75" transform="matrix(.060632 0 0 .060632 -.6724 -.99217)"/><path d="m179.6 160 10.666 16h21.734v-16z" opacity=".5" transform="matrix(.060632 0 0 .060632 -.6724 -.99217) matrix(1.0909 0 0 1.0909 -13.818 -14.182)"/><path d="m163.6 136 10.666 16h37.734v-16z" opacity=".5" transform="matrix(.060632 0 0 .060632 -.6724 -.99217) matrix(1.0909 0 0 1.0909 -13.818 -14.182)"/></g></svg>