<svg xmlns="http://www.w3.org/2000/svg" width="64" height="64" version="1.1" viewBox="0 0 16.933 16.933"><metadata/><defs><linearGradient id="a" x1="49.571" x2="51.714" y1="52.714" y2="54.857" gradientTransform="matrix(.61734 0 0 .61734 -18.168 -19.05)" gradientUnits="userSpaceOnUse"><stop offset="0"/><stop offset="1" stop-opacity="0"/></linearGradient></defs><rect width="12.7" height="14.816" x="2.117" y="1.058" fill="#455a64" stroke-width=".265" ry="1.323" style="paint-order:stroke fill markers"/><path fill="url(#a)" fill-rule="evenodd" stroke-width="2.333" d="m14.816 12.171-3.7041 3.7041h2.3812c0.73289 0 1.3229-0.59001 1.3229-1.3229z" opacity=".15" style="paint-order:stroke fill markers"/><g fill="#fff"><path d="m26.141 8.4258c-0.28858 0-0.5293 0.24072-0.5293 0.5293v3.1758c0 0.28858 0.24072 0.5293 0.5293 0.5293h6.3496c0.28858 0 0.5293-0.24072 0.5293-0.5293v-3.1758c0-0.28858-0.24072-0.5293-0.5293-0.5293zm0 0.5293h6.3496v3.1758h-6.3496z" color="#000" color-rendering="auto" dominant-baseline="auto" enable-background="new" image-rendering="auto" shape-rendering="auto" solid-color="#000000" transform="translate(-20.849 -2.0766)" style="font-feature-settings:normal;font-variant-alternates:normal;font-variant-caps:normal;font-variant-ligatures:normal;font-variant-numeric:normal;font-variant-position:normal;isolation:auto;mix-blend-mode:normal;shape-padding:0;text-decoration-color:#000;text-decoration-line:none;text-decoration-style:solid;text-indent:0;text-orientation:mixed;text-transform:none;white-space:normal"/><path d="m26.934 11.601v-2.1166h0.52916l0.66144 0.82681 0.66145-0.82681h0.52916v2.1166h-0.52916v-1.2898l-0.66145 0.82681-0.66144-0.82681v1.2898z" enable-background="new" transform="translate(-20.849 -2.0766)"/><path d="m30.903 11.601-0.79373-1.0583h0.52916v-1.0583h0.52916v1.0583h0.52916z" enable-background="new" transform="translate(-20.849 -2.0766)"/></g></svg>