<svg xmlns="http://www.w3.org/2000/svg" width="64" height="64" version="1.1"><defs><linearGradient id="a" x1="49.571" x2="51.714" y1="52.714" y2="54.857" gradientTransform="matrix(2.3333,0,0,2.3333,-68.667,-72.001)" gradientUnits="userSpaceOnUse"><stop offset="0"/><stop offset="1" stop-opacity="0"/></linearGradient></defs><g transform="scale(1)"><rect width="48" height="56" x="8" y="4" fill="#7fcc74" ry="5" style="paint-order:stroke fill markers"/><path fill="url(#a)" fill-rule="evenodd" stroke-width="8.819" d="m56 46-14 14h9c2.77 0 5-2.23 5-5z" opacity=".15" style="paint-order:stroke fill markers"/></g><g fill="#fff"><rect width="4" height="55.999" x="35.003" y="4" stroke-width="3.78" color="#000" opacity=".25"/><rect width="2.028" height="55.999" x="36.972" y="4" stroke-width="3.78" color="#000" opacity=".25"/><path d="m16 38c-1.108 0-2 0.892-2 2v12c0 1.108 0.89201 2 2 2h12c1.108 0 2-0.892 2-2v-12c0-1.108-0.89201-2-2-2zm0 2h12v2h-12zm0 4h9.0001v3h-9.0001zm10 0h2v3h-2zm-10 5h9.0001v3h-9.0001zm10 0h2v3h-2z" opacity=".5" style="paint-order:fill markers stroke"/></g></svg>