<svg xmlns="http://www.w3.org/2000/svg" xmlns:xlink="http://www.w3.org/1999/xlink" id="图层_1" x="0" y="0" version="1.1" viewBox="0 0 120 120" xml:space="preserve" style="enable-background:new 0 0 120 120"><style type="text/css">.st0{fill:url(#SVGID_1_)}.st1{fill:url(#SVGID_2_)}.st2{fill:url(#SVGID_3_)}</style><linearGradient id="SVGID_1_" x1="60" x2="60" y1="122" y2="2" gradientTransform="matrix(1 0 0 -1 0 122)" gradientUnits="userSpaceOnUse"><stop offset="0" style="stop-color:#5a9cff"/><stop offset=".879" style="stop-color:#2a23d5"/><stop offset="1" style="stop-color:#4a3cec"/></linearGradient><path d="M0,60C0,26.9,26.9,0,60,0l0,0c33.1,0,60,26.9,60,60l0,0c0,33.1-26.9,60-60,60l0,0C26.9,120,0,93.1,0,60L0,60z" class="st0"/><g><g><linearGradient id="SVGID_2_" x1="60" x2="60" y1="82" y2="29" gradientTransform="matrix(1 0 0 -1 0 122)" gradientUnits="userSpaceOnUse"><stop offset=".035" style="stop-color:#fff"/><stop offset=".526" style="stop-color:#b0d4ff"/><stop offset=".837" style="stop-color:#deedff"/><stop offset="1" style="stop-color:#fefeff"/></linearGradient><path d="M75.1,42.1c0,8.4-6.8,15.1-15.1,15.1c-8.4,0-15.1-6.8-15.1-15.1S51.6,27,60,27C68.4,27,75.1,33.8,75.1,42.1z" class="st1"/><linearGradient id="SVGID_3_" x1="60" x2="60" y1="82" y2="29" gradientTransform="matrix(1 0 0 -1 0 122)" gradientUnits="userSpaceOnUse"><stop offset=".035" style="stop-color:#fff"/><stop offset=".526" style="stop-color:#b0d4ff"/><stop offset=".837" style="stop-color:#deedff"/><stop offset="1" style="stop-color:#fefeff"/></linearGradient><path d="M34.4,71.7c6.9-5.6,15.8-9,25.6-9c9.8,0,18.7,3.4,25.6,9c3.9,3.2,3.9,9.1,0,12.3c-6.9,5.6-15.8,9-25.6,9 c-9.8,0-18.7-3.4-25.6-9C30.5,80.8,30.5,74.9,34.4,71.7z" class="st2"/></g></g></svg>